Coordinates
version=1
nRows=8
nColumns=40
inDegrees=yes

Units are S.I. units (second, meters, Newtons, ...)
If the header above contains a line with 'inDegrees', this indicates whether rotational values are in degrees (yes) or radians (no).

endheader
time	pelvis_tilt	pelvis_list	pelvis_rotation	pelvis_tx	pelvis_ty	pelvis_tz	hip_flexion_r	hip_adduction_r	hip_rotation_r	knee_angle_r	knee_angle_r_beta	ankle_angle_r	subtalar_angle_r	mtp_angle_r	hip_flexion_l	hip_adduction_l	hip_rotation_l	knee_angle_l	knee_angle_l_beta	ankle_angle_l	subtalar_angle_l	mtp_angle_l	lumbar_extension	lumbar_bending	lumbar_rotation	arm_flex_r	arm_add_r	arm_rot_r	elbow_flex_r	pro_sup_r	wrist_flex_r	wrist_dev_r	arm_flex_l	arm_add_l	arm_rot_l	elbow_flex_l	pro_sup_l	wrist_flex_l	wrist_dev_l
      3.26000000	    -44.32891518	      6.53703898	      0.37723734	     -0.42757766	      0.60193160	     -0.94597751	    111.06253831	    -17.62875202	      5.02739776	     89.64327746	      1.56457034	     25.35617546	      0.00000000	      0.00000000	    104.11635259	    -10.43276699	     -4.91525883	     89.51122622	      1.56226561	     32.82106073	      0.00000000	      0.00000000	    -26.66974033	     -2.53569355	     -8.63576021	      2.47136065	    -50.59062335	     65.95822912	     95.66818602	     85.73025257	      0.00000000	      0.00000000	     -1.61652112	    -53.93785952	     68.72340404	     93.72626112	     87.15983488	      0.00000000	      0.00000000
      3.26500000	    -44.48184387	      6.57534050	      0.42354879	     -0.42692798	      0.60185822	     -0.94617313	    111.19812886	    -17.65510612	      5.09499332	     89.65572217	      1.56478755	     25.25833903	      0.00000000	      0.00000000	    104.21447677	    -10.35483210	     -4.93948309	     89.51971824	      1.56241383	     32.83765600	      0.00000000	      0.00000000	    -26.48054914	     -2.50614600	     -8.74527730	      2.88450497	    -50.62966491	     66.61777557	     95.64956062	     82.85935946	      0.00000000	      0.00000000	     -1.68193927	    -53.88866152	     68.56198164	     93.54414030	     87.56638454	      0.00000000	      0.00000000
      3.27000000	    -44.44741174	      6.41859372	      0.40321361	     -0.42600215	      0.60196692	     -0.94596418	    111.02732142	    -17.61526110	      4.99403224	     89.69849125	      1.56553401	     25.34512229	      0.00000000	      0.00000000	    104.16964967	    -10.35672591	     -4.73957515	     89.57772100	      1.56342617	     32.81070312	      0.00000000	      0.00000000	    -26.37788035	     -2.39406755	     -8.68850572	      3.64193286	    -50.75349306	     67.89059104	     95.78520675	     78.97323978	      0.00000000	      0.00000000	     -1.18045924	    -53.88044076	     69.38655741	     93.48842850	     87.41569518	      0.00000000	      0.00000000
      3.27500000	    -44.32417914	      6.55085649	      0.43243673	     -0.42474176	      0.60240324	     -0.94609009	    110.85222137	    -17.61941995	      5.18620538	     89.71990087	      1.56590767	     25.55152261	      0.00000000	      0.00000000	    103.86171934	    -10.29699279	     -4.89694710	     89.55512040	      1.56303171	     33.01139823	      0.00000000	      0.00000000	    -26.41996735	     -2.47424518	     -8.62149605	      3.60620544	    -50.74126282	     67.19014237	     95.70595382	     85.70379405	      0.00000000	      0.00000000	     -0.63944369	    -53.84660558	     69.91612502	     93.38860267	     87.13375052	      0.00000000	      0.00000000
      3.28000000	    -44.03449043	      6.49613733	      0.42041843	     -0.42300519	      0.60320151	     -0.94586959	    110.38015311	    -17.62786356	      5.15816246	     89.76932572	      1.56677030	     25.71124061	      0.00000000	      0.00000000	    103.42585151	    -10.26918232	     -4.84184207	     89.59696738	      1.56376208	     33.16165471	      0.00000000	      0.00000000	    -26.56584564	     -2.43500564	     -8.55464598	      3.84529148	    -50.67001480	     67.36894857	     95.63139602	     85.71882247	      0.00000000	      0.00000000	     -0.39369978	    -54.07509056	     69.97540199	     93.51977764	     87.15536179	      0.00000000	      0.00000000
      3.28500000	    -43.87763729	      6.45812842	      0.43858907	     -0.42161301	      0.60400296	     -0.94571828	    110.03925135	    -17.59467356	      5.20621595	     89.75703694	      1.56655582	     25.86147350	      0.00000000	      0.00000000	    103.12407420	    -10.20668866	     -4.79215099	     89.55344584	      1.56300249	     33.22674420	      0.00000000	      0.00000000	    -26.53659883	     -2.37325879	     -8.59823961	      4.39722411	    -50.67190696	     67.91815499	     95.59130709	     85.58975621	      0.00000000	      0.00000000	      0.04300398	    -53.89061289	     70.34952187	     93.51644123	     87.26149613	      0.00000000	      0.00000000
      3.29000000	    -43.80207298	      6.34971807	      0.51330910	     -0.42037962	      0.60469731	     -0.94551361	    109.78204664	    -17.60100974	      5.19980850	     89.72490596	      1.56599503	     25.91440417	      0.00000000	      0.00000000	    102.92245237	    -10.06989573	     -4.64522778	     89.47930587	      1.56170850	     33.25848747	      0.00000000	      0.00000000	    -26.35099494	     -2.28500282	     -8.63884997	      4.85759314	    -50.63014795	     68.38661971	     95.48786378	     85.68460780	      0.00000000	      0.00000000	      0.24233022	    -53.97032480	     70.56530430	     93.52299275	     87.19829806	      0.00000000	      0.00000000
      3.29500000	    -43.19580086	      6.36753250	      0.33043732	     -0.41776170	      0.60636561	     -0.94478094	    108.88908244	    -17.40697471	      5.19854168	     89.76730066	      1.56673496	     26.10528575	      0.00000000	      0.00000000	    102.04199291	    -10.25916852	     -4.69607574	     89.52128513	      1.56244118	     33.42392910	      0.00000000	      0.00000000	    -26.75417506	     -2.39839272	     -8.53968272	      5.10423048	    -50.40344972	     68.46446781	     95.17736682	     85.69925697	      0.00000000	      0.00000000	      0.46860266	    -53.83847238	     70.62693300	     93.21862649	     87.19352858	      0.00000000	      0.00000000
